<svg id="Layer_1" data-name="Layer 1" xmlns="http://www.w3.org/2000/svg" viewBox="0 0 550.84 361.41"><defs><style>.cls-1{fill:#fff;}</style></defs><title>koop_logo_footer</title><path class="cls-1" d="M92.29,174a2.9,2.9,0,0,0-.52,2.81L133.94,265c.77,2-.51,3.83-3.06,3.83H94.33a2.93,2.93,0,0,1-2.81-1.53L62.38,208c-1-1.78-2.55-2-4.34-.25L49.61,217l-8.7,49.33c-.51,1.78-1.53,2.55-3.06,2.55H7.18c-1.53,0-2.56-.77-2-2.55L32.48,110.38c.51-1.79,1.54-2.55,3.06-2.55H66.22c1.27,0,2.55.76,2,2.55l-8.43,48.31c-.51,3.06,2.29,4.09,4.85,1.53l50.1-51.11a5.35,5.35,0,0,1,3.32-1.28h36.8c2.81,0,3.58,2,1.28,4.09Z" transform="translate(-5 -4)"/><path class="cls-1" d="M512.66,107.83c30.37,0,46.68,17.94,42.54,47-.11.77-2.57,15.27-2.71,16.06-4.6,26.07-28.37,46-59,46H473c-2.05,0-2.82.77-3.08,2.56l-8.39,46.86c-.51,1.78-1.53,2.55-3.06,2.55H427.81c-1.54,0-2.56-.77-1.23-6.55l26.65-151.91a2.83,2.83,0,0,1,3.07-2.55ZM507,139.52H486.59c-2,0-2.81,1-3.33,2.81l-6.94,40c-.25,1.79.26,2.56,2.31,2.56h20.44c8.69,0,16.36-6.91,18.15-14.57l2.85-16C521.86,146.68,516,139.52,507,139.52Z" transform="translate(-5 -4)"/><path class="cls-1" d="M263.88,225.63c-5,27.59-28.81,46.41-59.48,46.29l-15.08-.06c-31.18-.12-47.72-19.1-42.76-46.68l13.33-73.82c5-27.58,28.81-46.4,59.47-46.28l15.08.06c30.68.12,47.72,18.84,42.76,46.68Zm-35.75-87.11-14.58-.05c-8.4,0-16.83,6.6-18.09,14.26l-12.88,71.36c-1.27,7.66,4.39,14.35,13,14.39l14.58.05a17.84,17.84,0,0,0,17.6-14.26l12.88-71.37C242.2,145,236.78,138.56,228.13,138.52Z" transform="translate(-5 -4)"/><path class="cls-1" d="M405.19,225.63c-5,27.59-28.81,46.41-59.48,46.29l-15.08-.06c-31.18-.12-47.72-19.1-42.76-46.68l13.33-73.82c5-27.58,28.81-46.4,59.47-46.28l15.08.06c30.67.12,47.72,18.84,42.76,46.68Zm-35.75-87.11-14.58-.05c-8.4,0-16.83,6.6-18.1,14.26l-12.87,71.36c-1.27,7.66,4.39,14.35,13,14.39l14.59.05a17.82,17.82,0,0,0,17.59-14.26L382,152.9C383.5,145,378.09,138.56,369.44,138.52Z" transform="translate(-5 -4)"/><path class="cls-1" d="M186.73,98.55c-7.45-40.19-3.08-68.64,11.13-76A19.52,19.52,0,0,1,207,20.44c23.7,0,64.21,32.73,102.39,90.18a69.06,69.06,0,0,1,13.48-9.57C275.76,29.85,222.72-9,190.26,7.93c-23.42,12.21-29.18,49.88-18.78,99.75A70.54,70.54,0,0,1,186.73,98.55Z" transform="translate(-5 -4)"/><path class="cls-1" d="M394.4,268.62A69.86,69.86,0,0,1,379.33,278c.26,1.7.53,3.41.76,5.08,4.47,33.37-.45,57.25-13.16,63.87s-35.1-3-59.89-25.8c-16.38-15.06-32.89-34.76-48.45-57.56a68,68,0,0,1-12.87,10.28c16.09,23.43,33.18,43.74,50.2,59.38,23.08,21.21,44.45,32.19,62,32.19a35.51,35.51,0,0,0,16.62-3.92c19.69-10.25,27.45-38.89,21.86-80.62C395.84,276.87,395.16,272.77,394.4,268.62Z" transform="translate(-5 -4)"/><path class="cls-1" d="M55,318.58c-1.23,6.94-7.27,11.82-15,11.82H37.9c-4.56,0-7.33-1.42-9.13-4.11A14.88,14.88,0,0,1,27,322.5a.75.75,0,0,1,.45-1l7.2-3.15a.65.65,0,0,1,1,.38c.77,2.57,2.12,3.73,3.92,3.73h1.8a4.89,4.89,0,0,0,4.69-3.85l.5-3c.06-.58-.19-.83-.65-.64a7.9,7.9,0,0,1-3.08.71H39.94c-6.94,0-11.38-4.82-10.22-11.7l.66-3.84c1.22-6.94,7.2-11.7,15-11.7h2c7.77,0,12.08,4.76,10.86,11.7Zm-9.07-22.11h-2a4.79,4.79,0,0,0-4.69,3.66l-.63,3.6A3.23,3.23,0,0,0,42,307.45h2a4.77,4.77,0,0,0,4.63-3.72l.62-3.6C49.66,298.07,48.24,296.47,45.93,296.47Z" transform="translate(-5 -4)"/><path class="cls-1" d="M73.61,305c.13-.57-.32-.77-.84-.38L70.85,306c-.39.26-.64.26-.9,0l-4.18-4.56c-.25-.32-.19-.58.19-.9l13.56-11.12a1.8,1.8,0,0,1,.84-.25h4.31c.38,0,.64.19.51.64l-6.85,39.2a.75.75,0,0,1-.77.64H69.89c-.38,0-.64-.19-.51-.64Z" transform="translate(-5 -4)"/><path class="cls-1" d="M136.42,299.62c-1.93,11.24-18,13.23-19.15,19.66l-1.74,9.77c-.13.45-.32.64-.77.64h-7.52c-.39,0-.64-.19-.52-.64l1.81-10.41c1.92-11.25,17.93-13.24,19.08-19.67l.2-1.09c.06-.38-.07-.71-.58-.71H111.68c-.39,0-.58-.12-.52-.57l1.16-6.75a.75.75,0,0,1,.77-.64h24.48c.39,0,.65.19.52.64Z" transform="translate(-5 -4)"/><path class="cls-1" d="M178.9,296.6c-.06.45-.32.57-.77.57H162.64c-.51,0-.7.26-.83.71l-1.54,8.93c-.07.45.06.64.58.64h12.72c.45,0,.64.2.58.65L172.89,315a.71.71,0,0,1-.77.65H159.39c-.51,0-.7.19-.77.64l-2.28,12.74a.74.74,0,0,1-.77.64h-7.71c-.38,0-.64-.19-.51-.64l6.88-39.2a.75.75,0,0,1,.77-.64h24.55c.39,0,.64.19.51.64Z" transform="translate(-5 -4)"/><path class="cls-1" d="M216.79,329.05a.75.75,0,0,1-.77.64h-7.39c-.45,0-.58-.19-.45-.64l1.29-7.45c1-5.53,2.18-10.8,3-13.82l-.26-.07a41.65,41.65,0,0,1-2.57,5.47l-5.89,10.71a1.15,1.15,0,0,1-1,.51h-4.69a.68.68,0,0,1-.71-.51l-2.91-10.78a28.75,28.75,0,0,1-.71-5.4l-.26.07c-.12,2.31-.83,8.16-1.79,13.75l-1.29,7.52c-.13.45-.32.64-.77.64h-7.46c-.38,0-.64-.19-.51-.64l6.88-39.2a.75.75,0,0,1,.77-.64h7.32a.55.55,0,0,1,.58.38l4.57,20.05a11.38,11.38,0,0,1,.25,2.77h.26a25.78,25.78,0,0,1,1.35-2.77l11.57-20.05a.77.77,0,0,1,.64-.38h7.26c.39,0,.64.19.52.64Z" transform="translate(-5 -4)"/><path class="cls-1" d="M96.94,328.87a.7.7,0,0,1-.72.6H89c-.36,0-.6-.18-.48-.6l1.23-7.1a.7.7,0,0,1,.72-.6h7.2c.36,0,.6.18.48.6Z" transform="translate(-5 -4)"/></svg>