<svg id="Layer_1" data-name="Layer 1" xmlns="http://www.w3.org/2000/svg" viewBox="0 0 752.91 265.19"><defs><style>.cls-1{fill:#fff;}.cls-2{fill:#7f59a5;}</style></defs><title>koop_logo_header</title><path class="cls-1" d="M504.5,97.06l-1.64,4.13H496.3l9.14-23.77h6.75l8.95,23.77h-6.59L513,97.06Zm4.32-12.3h-.07l-2.55,7.57h5.14Z" transform="translate(-2.07 -1.89)"/><path class="cls-1" d="M549.36,77.42V90.78c0,3.06-.13,6.09-2.49,8.39-2,2-5.11,2.65-7.89,2.65s-5.89-.7-7.88-2.65c-2.36-2.3-2.49-5.33-2.49-8.39V77.42h6.18V89.93c0,3.09.22,6.46,4.19,6.46s4.2-3.37,4.2-6.46V77.42Z" transform="translate(-2.07 -1.89)"/><path class="cls-1" d="M572,83.53a6.55,6.55,0,0,0-4.1-1.57c-1.13,0-2.65.66-2.65,2s1.67,1.93,2.75,2.27l1.57.48c3.31,1,5.86,2.64,5.86,6.49,0,2.36-.56,4.79-2.46,6.4a10.38,10.38,0,0,1-6.74,2.24,14.64,14.64,0,0,1-8.35-2.71l2.64-5A8.52,8.52,0,0,0,566,96.58c1.45,0,3-.72,3-2.39s-2.42-2.33-3.75-2.71c-3.88-1.11-6.43-2.11-6.43-6.72,0-4.82,3.44-8,8.2-8a16.2,16.2,0,0,1,7.43,1.95Z" transform="translate(-2.07 -1.89)"/><path class="cls-1" d="M593.49,101.19h-6.18V82.65H582.2V77.42h16.39v5.23h-5.1v18.54Z" transform="translate(-2.07 -1.89)"/><path class="cls-1" d="M612.69,101.19h-6.18V77.42h6.18Z" transform="translate(-2.07 -1.89)"/><path class="cls-1" d="M622.39,77.42h6.18L639.89,92H640V77.42h6.18v23.77H640L628.64,86.62h-.07v14.57h-6.18Z" transform="translate(-2.07 -1.89)"/><path class="cls-1" d="M665,77.42l-5.8,10.43h-3.66l4.1-10.43Z" transform="translate(-2.07 -1.89)"/><path class="cls-1" d="M686.29,83.53a6.51,6.51,0,0,0-4.1-1.57c-1.13,0-2.64.66-2.64,2s1.67,1.93,2.74,2.27l1.57.48c3.31,1,5.87,2.64,5.87,6.49,0,2.36-.57,4.79-2.46,6.4a10.41,10.41,0,0,1-6.75,2.24,14.69,14.69,0,0,1-8.35-2.71l2.65-5a8.47,8.47,0,0,0,5.48,2.45c1.45,0,3-.72,3-2.39s-2.43-2.33-3.76-2.71c-3.87-1.11-6.43-2.11-6.43-6.72,0-4.82,3.44-8,8.2-8a16.21,16.21,0,0,1,7.44,1.95Z" transform="translate(-2.07 -1.89)"/><path class="cls-1" d="M515.44,132.68a6.73,6.73,0,0,0-5.43-2.62,6.26,6.26,0,0,0-6.33,6.59,6.16,6.16,0,0,0,6.43,6.46,7.1,7.1,0,0,0,5.33-2.52V148a17.5,17.5,0,0,1-5.46,1.1,13.22,13.22,0,0,1-8.92-3.5,11.59,11.59,0,0,1-3.81-9,12.43,12.43,0,0,1,3.5-8.7,12.85,12.85,0,0,1,9-3.85,14.46,14.46,0,0,1,5.65,1.2v7.41Z" transform="translate(-2.07 -1.89)"/><path class="cls-1" d="M550,136.15c0,7.69-5.52,13.11-13.15,13.11s-13.14-5.42-13.14-13.11c0-7.19,6.3-12.24,13.14-12.24S550,129,550,136.15Zm-19.86,0a6.72,6.72,0,1,0,13.43,0,6.73,6.73,0,0,0-13.43,0Z" transform="translate(-2.07 -1.89)"/><path class="cls-1" d="M561.18,124.7h6.08l4.82,12.71,5.11-12.71h6.15l3.59,23.77h-6.18L579,134.79H579l-5.71,13.68h-2.46l-5.45-13.68h-.07l-2,13.68h-6.15Z" transform="translate(-2.07 -1.89)"/><path class="cls-1" d="M597.84,124.7h6.08l4.82,12.71,5.11-12.71H620l3.59,23.77h-6.18l-1.73-13.68h-.06l-5.71,13.68h-2.46L602,134.79h-.06l-2,13.68H593.8Z" transform="translate(-2.07 -1.89)"/><path class="cls-1" d="M652.5,124.7v13.37c0,3.06-.13,6.08-2.49,8.38-2,2-5.11,2.65-7.88,2.65s-5.9-.69-7.88-2.65c-2.37-2.3-2.49-5.32-2.49-8.38V124.7h6.18v12.52c0,3.09.22,6.46,4.19,6.46s4.19-3.37,4.19-6.46V124.7Z" transform="translate(-2.07 -1.89)"/><path class="cls-1" d="M662.08,124.7h6.18l11.32,14.54h.06V124.7h6.18v23.77h-6.18l-11.32-14.56h-.06v14.56h-6.18Z" transform="translate(-2.07 -1.89)"/><path class="cls-1" d="M701.71,148.47h-6.18V124.7h6.18Z" transform="translate(-2.07 -1.89)"/><path class="cls-1" d="M720.87,148.47h-6.18V129.94h-5.1V124.7H726v5.24h-5.11v18.53Z" transform="translate(-2.07 -1.89)"/><path class="cls-1" d="M731.28,124.7h7.4l4.45,6.46,4.44-6.46H755l-8.76,12.36v11.41H740V137.06Z" transform="translate(-2.07 -1.89)"/><path class="cls-1" d="M518.21,195.76h-7.69l-5.83-9.14h-.07v9.14h-6.18V172h9.24c4.7,0,8.26,2.24,8.26,7.31,0,3.28-1.83,6.12-5.2,6.72Zm-13.59-13.12h.6c2,0,4.29-.37,4.29-3s-2.27-3-4.29-3h-.6Z" transform="translate(-2.07 -1.89)"/><path class="cls-1" d="M531.61,191.63,530,195.76h-6.56L532.55,172h6.75l9,23.77h-6.59l-1.54-4.13Zm4.32-12.3h-.07l-2.55,7.57h5.14Z" transform="translate(-2.07 -1.89)"/><path class="cls-1" d="M555.85,172h8.76a11.89,11.89,0,1,1,0,23.77h-8.76ZM562,190.52h1.38c3.69,0,6.85-2,6.85-6.65,0-4.25-2.81-6.65-6.78-6.65H562v13.3Z" transform="translate(-2.07 -1.89)"/><path class="cls-1" d="M591.41,195.76h-6.18V172h6.18Z" transform="translate(-2.07 -1.89)"/><path class="cls-1" d="M626.21,183.43c0,7.69-5.52,13.12-13.15,13.12s-13.14-5.43-13.14-13.12c0-7.19,6.3-12.23,13.14-12.23S626.21,176.24,626.21,183.43Zm-19.86,0a6.73,6.73,0,1,0,13.43,0,6.73,6.73,0,0,0-13.43,0Z" transform="translate(-2.07 -1.89)"/><rect class="cls-1" x="449.82" y="26.54" width="1.75" height="217.68"/><path class="cls-1" d="M66.12,126.64a2.11,2.11,0,0,0-.37,2.06l30.94,64.7c.56,1.5-.38,2.81-2.25,2.81H67.62a2.14,2.14,0,0,1-2.06-1.12L44.18,151.58c-.75-1.31-1.88-1.5-3.19-.19l-6.19,6.75-6.38,36.2a2.18,2.18,0,0,1-2.24,1.87H3.67c-1.12,0-1.87-.56-1.5-1.87L22.24,79.94a2.19,2.19,0,0,1,2.25-1.87H47c.94,0,1.88.56,1.5,1.87l-6.18,35.45c-.38,2.25,1.68,3,3.56,1.12L82.63,79a3.94,3.94,0,0,1,2.43-.94h27c2.07,0,2.63,1.5.94,3Z" transform="translate(-2.07 -1.89)"/><path class="cls-1" d="M192,164.51c-3.64,20.24-21.14,34.05-43.64,34l-11.07,0c-22.88-.09-35-14-31.37-34.26L115.73,110c3.64-20.24,21.13-34,43.64-34l11.06,0c22.51.08,35,13.82,31.37,34.25ZM165.8,100.59l-10.7,0c-6.16,0-12.35,4.85-13.28,10.47l-9.45,52.36c-.93,5.62,3.23,10.53,9.57,10.55l10.7,0a13.08,13.08,0,0,0,12.91-10.47L175,111.15C176.12,105.35,172.15,100.62,165.8,100.59Z" transform="translate(-2.07 -1.89)"/><path class="cls-1" d="M295.71,164.51c-3.64,20.24-21.13,34.05-43.64,34l-11.06,0c-22.88-.09-35-14-31.38-34.26L219.41,110c3.64-20.24,21.14-34,43.64-34l11.06,0c22.51.08,35,13.82,31.38,34.25Zm-26.23-63.92-10.69,0c-6.16,0-12.35,4.85-13.28,10.47l-9.45,52.36c-.93,5.62,3.22,10.53,9.57,10.55l10.7,0a13.1,13.1,0,0,0,12.91-10.47l9.45-52.36C279.8,105.35,275.83,100.62,269.48,100.59Z" transform="translate(-2.07 -1.89)"/><path class="cls-2" d="M135.42,71.27c-5.46-29.5-2.26-50.37,8.16-55.81A14.49,14.49,0,0,1,150.3,14c17.39,0,47.12,24,75.13,66.17a50.41,50.41,0,0,1,9.89-7C200.75,20.86,161.83-7.64,138,4.77c-17.18,9-21.41,36.6-13.78,73.19A51.51,51.51,0,0,1,135.42,71.27Z" transform="translate(-2.07 -1.89)"/><path class="cls-2" d="M287.8,196.05a51,51,0,0,1-11.06,6.86c.2,1.25.39,2.5.56,3.73,3.28,24.49-.33,42-9.66,46.87s-25.75-2.22-43.94-18.94c-12-11-24.13-25.5-35.55-42.23a49.72,49.72,0,0,1-9.44,7.54c11.8,17.19,24.34,32.1,36.83,43.57C232.48,259,248.15,267.07,261,267.07a26,26,0,0,0,12.19-2.87c14.45-7.53,20.14-28.54,16-59.16C288.86,202.1,288.36,199.1,287.8,196.05Z" transform="translate(-2.07 -1.89)"/><path class="cls-1" d="M38.76,232.71c-.9,5.09-5.33,8.67-11,8.67H26.21c-3.34,0-5.37-1-6.69-3a10.89,10.89,0,0,1-1.28-2.79.56.56,0,0,1,.33-.75l5.29-2.31c.37-.14.61,0,.7.28.57,1.89,1.56,2.74,2.88,2.74h1.32a3.58,3.58,0,0,0,3.44-2.83l.37-2.19c0-.42-.14-.61-.47-.47a5.87,5.87,0,0,1-2.27.52H27.71c-5.09,0-8.35-3.53-7.5-8.58l.49-2.81c.89-5.1,5.28-8.59,11-8.59h1.47c5.7,0,8.86,3.49,8,8.59Zm-6.65-16.22H30.65a3.53,3.53,0,0,0-3.45,2.68l-.45,2.64a2.36,2.36,0,0,0,2.49,2.74h1.47a3.49,3.49,0,0,0,3.39-2.74l.46-2.64A2.23,2.23,0,0,0,32.11,216.49Z" transform="translate(-2.07 -1.89)"/><path class="cls-1" d="M52.42,222.76c.09-.43-.24-.57-.62-.29l-1.41,1c-.28.19-.47.19-.66,0l-3.06-3.35c-.19-.23-.15-.42.14-.66l9.94-8.15a1.33,1.33,0,0,1,.62-.19h3.16c.28,0,.47.14.38.47l-5,28.76a.54.54,0,0,1-.56.47H49.69c-.29,0-.47-.14-.38-.47Z" transform="translate(-2.07 -1.89)"/><path class="cls-1" d="M98.5,218.8c-1.41,8.25-13.2,9.71-14,14.43l-1.27,7.16c-.1.33-.24.47-.57.47H77.09c-.28,0-.47-.14-.37-.47L78,232.75c1.41-8.25,13.16-9.71,14-14.43l.14-.8c0-.28,0-.52-.42-.52H80.35c-.28,0-.43-.09-.38-.42l.85-5a.54.54,0,0,1,.56-.47h18c.28,0,.47.14.38.47Z" transform="translate(-2.07 -1.89)"/><path class="cls-1" d="M129.68,216.58c-.05.33-.24.42-.57.42H117.75c-.38,0-.52.19-.61.52L116,224.07c0,.33,0,.48.43.48h9.34c.33,0,.47.14.42.47l-.92,5.08a.53.53,0,0,1-.57.47h-9.34c-.37,0-.51.14-.56.47l-1.67,9.35a.55.55,0,0,1-.57.47H106.9c-.28,0-.47-.14-.37-.47l5-28.76a.56.56,0,0,1,.57-.47h18c.29,0,.47.14.38.47Z" transform="translate(-2.07 -1.89)"/><path class="cls-1" d="M157.48,240.39a.56.56,0,0,1-.57.47h-5.42c-.33,0-.43-.14-.33-.47l.94-5.47c.71-4,1.6-7.92,2.22-10.14l-.19,0a30.67,30.67,0,0,1-1.89,4l-4.32,7.85a.82.82,0,0,1-.71.38h-3.44a.49.49,0,0,1-.52-.38l-2.13-7.9a19.6,19.6,0,0,1-.52-4l-.19,0c-.1,1.7-.62,6-1.32,10.1l-1,5.51c-.09.33-.23.47-.56.47h-5.47c-.28,0-.47-.14-.38-.47l5.05-28.76a.54.54,0,0,1,.56-.47h5.38a.4.4,0,0,1,.42.28l3.35,14.71a8.43,8.43,0,0,1,.19,2h.19a18,18,0,0,1,1-2l8.49-14.71a.56.56,0,0,1,.47-.28h5.33c.28,0,.47.14.38.47Z" transform="translate(-2.07 -1.89)"/><path class="cls-1" d="M69.54,240.26a.51.51,0,0,1-.53.44H63.73c-.27,0-.44-.13-.36-.44l.9-5.21a.52.52,0,0,1,.53-.44h5.29c.26,0,.44.13.35.44Z" transform="translate(-2.07 -1.89)"/><path class="cls-1" d="M374.57,78.07c22.28,0,34.25,13.17,31.22,34.47-.08.57-1.89,11.21-2,11.79-3.37,19.13-20.81,33.75-43.31,33.75h-15c-1.51,0-2.07.57-2.26,1.88l-6.16,34.38a2.19,2.19,0,0,1-2.24,1.88H312.31c-1.12,0-1.87-.57-.9-4.81L331,80a2.07,2.07,0,0,1,2.25-1.88Zm-4.12,23.25h-15c-1.5,0-2.06.75-2.44,2.07l-5.09,29.38c-.19,1.31.19,1.87,1.69,1.87h15c6.38,0,12-5.06,13.32-10.69L380,112.2C381.32,106.58,377,101.32,370.45,101.32Z" transform="translate(-2.07 -1.89)"/></svg>